<svg viewBox="0 0 512 512" xmlns="http://www.w3.org/2000/svg"><g transform="translate(256 268) rotate(-18) scale(1.15)"><defs><clipPath id="beeBody"><ellipse cx="0" cy="30" rx="82" ry="120"/></clipPath></defs>
<g id="bee">
  <ellipse cx="-44" cy="-74" rx="48" ry="80" fill="#FBEAC6" stroke="#E8A83C" stroke-width="9" transform="rotate(-32 -44 -74)"/>
  <ellipse cx="44" cy="-70" rx="44" ry="72" fill="#FBEAC6" stroke="#E8A83C" stroke-width="9" transform="rotate(30 44 -70)"/>
  <ellipse cx="0" cy="30" rx="82" ry="120" fill="#E8A83C"/>
  <g clip-path="url(#beeBody)" fill="#0C5F7D"><rect x="-96" y="-14" width="192" height="30"/><rect x="-96" y="44" width="192" height="30"/><rect x="-96" y="102" width="192" height="30"/></g>
  <circle cx="0" cy="-98" r="40" fill="#0C5F7D"/>
  <path d="M-14 -128 C -28 -166, -48 -174, -66 -164" fill="none" stroke="#0C5F7D" stroke-width="9" stroke-linecap="round"/>
  <path d="M14 -128 C 28 -166, 48 -174, 66 -164" fill="none" stroke="#0C5F7D" stroke-width="9" stroke-linecap="round"/>
  <circle cx="-68" cy="-164" r="11" fill="#E8A83C"/><circle cx="68" cy="-164" r="11" fill="#E8A83C"/>
</g></g></svg>
